<?xml version="1.0" standalone="no"?>
<!DOCTYPE svg PUBLIC "-//W3C//DTD SVG 20010904//EN"
 "http://www.w3.org/TR/2001/REC-SVG-20010904/DTD/svg10.dtd">
<svg version="1.0" xmlns="http://www.w3.org/2000/svg"
 width="1000.000000pt" height="305.000000pt" viewBox="0 0 1000.000000 305.000000"
 preserveAspectRatio="xMidYMid meet">
<metadata>
Created by potrace 1.16, written by Peter Selinger 2001-2019
</metadata>
<g transform="translate(0.000000,305.000000) scale(0.100000,-0.100000)"
fill="#000000" stroke="none">
<path d="M1180 3029 c-129 -27 -226 -61 -345 -119 -421 -205 -714 -592 -801
-1055 -25 -133 -25 -390 -1 -525 36 -195 122 -401 241 -575 67 -98 290 -334
401 -425 201 -163 437 -274 670 -314 122 -21 428 -21 548 0 127 22 284 76 404
138 399 209 673 578 759 1026 27 143 25 419 -5 560 -44 208 -128 403 -243 565
-71 101 -274 315 -388 410 -193 161 -418 269 -655 315 -148 28 -447 28 -585
-1z m505 -30 c101 -15 217 -47 320 -88 90 -37 230 -109 223 -117 -3 -2 -36 10
-74 26 -89 37 -238 76 -351 91 -113 15 -383 6 -483 -16 -188 -41 -370 -118
-530 -224 -107 -71 -273 -230 -356 -341 -118 -159 -217 -381 -260 -585 -27
-127 -27 -452 -1 -575 19 -88 62 -225 92 -295 25 -60 2 -30 -44 55 -241 453
-215 1013 67 1440 309 466 848 708 1397 629z m170 -314 c158 -34 325 -103 446
-186 87 -59 205 -212 283 -367 92 -183 131 -370 123 -587 -13 -327 -141 -611
-376 -838 -236 -227 -533 -347 -856 -347 -312 0 -625 126 -844 339 -58 57 -77
85 -134 201 -141 285 -172 573 -93 865 133 492 556 865 1061 934 92 13 302 5
390 -14z m800 -539 c207 -312 262 -708 149 -1068 -57 -181 -170 -365 -308
-504 -420 -419 -1073 -487 -1565 -163 -50 33 -92 63 -95 67 -2 4 34 -12 81
-35 180 -88 347 -125 563 -125 351 0 657 127 905 376 241 242 367 552 367 901
1 205 -51 424 -138 583 -46 85 -27 70 41 -32z"/>
<path d="M3400 2045 l0 -665 130 0 130 0 0 245 0 245 93 0 92 0 125 -245 125
-245 144 0 c132 0 143 1 137 18 -4 9 -68 133 -142 276 -74 142 -134 259 -132
261 2 1 29 19 60 39 110 72 158 160 166 302 9 178 -59 304 -202 374 -97 48
-186 59 -473 60 l-253 0 0 -665z m543 429 c92 -31 139 -127 116 -237 -14 -63
-65 -119 -124 -136 -22 -6 -93 -11 -157 -11 l-118 0 0 200 0 200 118 0 c82 0
133 -5 165 -16z"/>
<path d="M4530 2045 l0 -665 450 0 450 0 0 105 0 105 -320 0 -320 0 0 185 0
185 275 0 275 0 0 105 0 105 -275 0 -275 0 0 160 0 160 315 0 315 0 0 110 0
110 -445 0 -445 0 0 -665z"/>
<path d="M5640 2045 l0 -665 135 0 135 0 0 270 0 270 285 0 285 0 0 110 0 110
-285 0 -285 0 0 175 0 175 320 0 320 0 0 110 0 110 -455 0 -455 0 0 -665z"/>
<path d="M6760 2045 l0 -665 440 0 440 0 0 105 0 105 -305 0 -305 0 0 560 0
560 -135 0 -135 0 0 -665z"/>
<path d="M7870 2045 l0 -665 450 0 450 0 0 105 0 105 -315 0 -315 0 0 185 0
185 270 0 270 0 0 105 0 105 -270 0 -270 0 0 160 0 160 315 0 315 0 0 110 0
110 -450 0 -450 0 0 -665z"/>
<path d="M8890 2705 c0 -3 83 -152 185 -331 l184 -326 -178 -311 c-98 -172
-183 -322 -190 -334 l-12 -23 158 0 158 0 115 230 c63 127 117 230 120 230 3
0 57 -103 120 -230 l115 -230 152 0 c84 0 153 3 153 6 0 3 -83 151 -185 328
-102 178 -185 327 -185 333 0 6 81 154 180 328 99 174 180 321 180 326 0 5
-66 9 -153 9 l-154 0 -114 -234 -113 -234 -115 234 -114 234 -154 0 c-84 0
-153 -2 -153 -5z"/>
<path d="M3406 1229 c-31 -25 -34 -61 -6 -89 20 -20 33 -20 3285 -20 3252 0
3265 0 3285 20 28 28 25 64 -6 89 l-27 21 -3252 0 -3252 0 -27 -21z"/>
<path d="M3633 980 c-93 -20 -167 -76 -214 -162 -31 -58 -34 -70 -34 -153 0
-73 4 -99 22 -135 37 -74 79 -117 151 -152 60 -30 75 -33 152 -33 93 1 168 26
209 69 20 22 21 23 3 39 -16 15 -20 14 -60 -13 -149 -100 -355 -27 -412 143
-16 50 -9 151 14 198 71 148 285 200 413 99 25 -19 27 -19 45 -3 18 16 18 17
-3 39 -49 52 -191 84 -286 64z"/>
<path d="M4153 820 c-49 -10 -94 -32 -113 -55 -11 -13 -11 -18 2 -31 13 -13
20 -12 59 10 122 70 249 23 249 -92 l0 -29 -112 -5 c-172 -7 -218 -38 -218
-142 0 -36 6 -52 31 -80 55 -64 192 -71 270 -15 l29 20 0 -25 c0 -22 4 -26 31
-26 l31 0 -4 183 c-3 168 -5 185 -26 218 -12 20 -37 44 -55 52 -42 20 -121 28
-174 17z m197 -295 c0 -118 -174 -183 -253 -95 -23 26 -28 39 -23 63 13 65 38
76 174 76 l102 1 0 -45z"/>
<path d="M4737 818 c-21 -5 -53 -25 -72 -43 l-35 -32 0 38 c0 35 -3 39 -25 39
l-25 0 0 -235 0 -235 30 0 30 0 0 159 c0 147 2 160 23 191 47 71 154 98 215
54 53 -40 62 -73 62 -246 l0 -158 30 0 30 0 0 153 c0 171 9 204 68 243 50 34
102 39 155 16 68 -30 77 -58 77 -251 l0 -161 31 0 31 0 -4 173 c-3 192 -14
231 -76 274 -75 50 -207 35 -271 -31 l-34 -36 -18 29 c-32 53 -141 82 -222 59z"/>
<path d="M5651 820 c-55 -13 -113 -61 -140 -115 -33 -63 -36 -170 -7 -225 56
-106 164 -156 281 -130 49 11 111 45 119 65 2 6 -2 19 -10 30 -14 18 -14 18
-36 -2 -60 -55 -154 -64 -226 -23 -46 26 -92 90 -92 128 0 22 2 22 201 22
l202 0 -7 52 c-12 85 -50 144 -117 178 -43 23 -122 32 -168 20z m108 -50 c58
-16 121 -90 121 -140 0 -19 -5 -20 -170 -20 -185 0 -181 -1 -159 57 15 40 48
73 94 94 46 21 66 23 114 9z"/>
<path d="M6255 825 c-5 -2 -22 -6 -37 -9 -15 -4 -43 -20 -63 -37 l-35 -31 0
36 c0 32 -3 36 -25 36 l-25 0 0 -235 0 -235 24 0 24 0 4 153 c3 130 6 158 24
191 23 45 73 76 121 76 30 0 33 3 33 30 0 29 -12 36 -45 25z"/>
<path d="M6491 815 c-29 -8 -66 -24 -82 -36 -24 -17 -27 -24 -18 -40 6 -11 13
-19 17 -17 68 36 115 52 158 52 86 1 134 -41 134 -119 l0 -35 -79 0 c-170 0
-238 -33 -248 -122 -10 -83 42 -140 137 -153 58 -8 124 8 168 41 l32 25 0 -30
c0 -26 4 -31 25 -31 l25 0 0 173 c0 159 -2 176 -22 217 -13 25 -36 52 -53 61
-44 25 -130 31 -194 14z m209 -294 c0 -37 -5 -54 -25 -75 -53 -58 -147 -73
-206 -33 -38 25 -50 59 -36 100 15 44 49 56 165 57 l102 0 0 -49z"/>
<path d="M6985 815 c-77 -20 -115 -76 -101 -149 10 -52 53 -82 143 -101 127
-26 172 -56 159 -108 -10 -42 -50 -62 -126 -62 -58 1 -104 15 -171 52 -3 2
-11 -8 -17 -22 -12 -25 -10 -27 45 -52 110 -51 277 -30 310 39 21 43 23 60 13
98 -13 50 -51 73 -157 95 -45 10 -96 26 -113 37 -27 16 -31 23 -28 55 5 54 42
78 121 78 40 -1 76 -8 101 -20 38 -18 39 -18 52 0 20 27 3 40 -71 60 -70 18
-94 18 -160 0z"/>
</g>
</svg>
