<?xml version="1.0" encoding="UTF-8" standalone="no"?>
<svg
   version="1.1"
   width="462"
   height="462"
   viewBox="0 0 462 462"
   id="svg12"
   sodipodi:docname="logo-no-background-circleonly2.svg"
   inkscape:export-filename="../../logo-no-backgroundwhite2.png"
   inkscape:export-xdpi="212.77922"
   inkscape:export-ydpi="212.77922"
   inkscape:version="1.3.2 (091e20e, 2023-11-25)"
   xml:space="preserve"
   xmlns:inkscape="http://www.inkscape.org/namespaces/inkscape"
   xmlns:sodipodi="http://sodipodi.sourceforge.net/DTD/sodipodi-0.dtd"
   xmlns="http://www.w3.org/2000/svg"
   xmlns:svg="http://www.w3.org/2000/svg"><defs
     id="defs12" /><sodipodi:namedview
     id="namedview12"
     pagecolor="#ffffff"
     bordercolor="#000000"
     borderopacity="0.25"
     inkscape:showpageshadow="2"
     inkscape:pageopacity="0.0"
     inkscape:pagecheckerboard="0"
     inkscape:deskcolor="#d1d1d1"
     inkscape:zoom="0.51082251"
     inkscape:cx="751.72881"
     inkscape:cy="75.368644"
     inkscape:window-width="1512"
     inkscape:window-height="916"
     inkscape:window-x="0"
     inkscape:window-y="38"
     inkscape:window-maximized="0"
     inkscape:current-layer="layer1" /><g
     inkscape:groupmode="layer"
     id="layer1"
     inkscape:label="circle"
     transform="matrix(0.88923609,0,0,0.88923609,25.470916,25.449153)"><path
       fill="#374151"
       d="M 95,52 C 95,39.129 89.308,27.569 80.318,19.682 72.431,10.692 60.871,5 48,5 24.29,5 5,24.29 5,48 5,60.868 10.69,72.426 19.677,80.313 27.564,89.306 39.126,95 52,95 c 0.084,0 0.166,-0.006 0.25,-0.006 0.084,0 0.166,0.006 0.25,0.006 C 75.972,95 95,75.972 95,52.5 95,52.416 94.994,52.334 94.994,52.25 94.994,52.166 95,52.084 95,52 Z M 21.828,73.371 C 17.583,67.393 15.058,60.112 15.006,52.25 15.141,31.739 31.738,15.141 52.25,15.006 60.112,15.058 67.394,17.583 73.371,21.828 80.224,28.473 84.5,37.758 84.5,48 84.5,68.126 68.126,84.5 48,84.5 37.758,84.5 28.473,80.224 21.828,73.371 Z M 6,48 C 6,24.841 24.841,6 48,6 57.858,6 66.926,9.422 74.1,15.13 67.637,11.242 60.076,9 52,9 28.29,9 9,28.29 9,52 9,60.074 11.241,67.633 15.127,74.095 9.421,66.923 6,57.856 6,48 Z M 52,89 C 41.92,89 32.773,84.945 26.095,78.385 32.269,82.854 39.838,85.5 48,85.5 68.678,85.5 85.5,68.678 85.5,48 85.5,39.838 82.854,32.269 78.385,26.095 84.945,32.773 89,41.92 89,52 89,72.402 72.402,89 52,89 Z"
       data-fill-palette-color="accent"
       id="path7"
       style="display:inline;fill:#ffffff;fill-opacity:1"
       transform="matrix(5.1057849,0,0,5.1057849,-25.332442,-25.528924)" /></g></svg>
